<svg width="32" height="31" viewBox="0 0 32 31" fill="none" xmlns="http://www.w3.org/2000/svg">
<path d="M3.80428 15.9003V28.1857C3.80428 28.9232 4.40215 29.5211 5.13965 29.5211H25.8379C26.5754 29.5211 27.1733 28.9232 27.1733 28.1857V15.9003C27.1733 15.1628 27.7712 14.5649 28.5087 14.5649H29.6497C30.347 14.5649 30.9123 13.9996 30.9123 13.3023C30.9123 12.9187 30.738 12.5559 30.4385 12.3163L26.7397 9.35729C26.4229 9.10388 26.2385 8.72021 26.2385 8.31454V5.61792C26.2385 4.88042 25.6407 4.28255 24.9032 4.28255H22.1611C21.8317 4.28255 21.5647 4.54954 21.5647 4.87888C21.5647 5.38447 20.975 5.66067 20.5866 5.337L16.7674 2.15433C16.292 1.75809 15.6065 1.74053 15.1113 2.1119L1.49854 12.3215C1.1847 12.5569 1 12.9263 1 13.3186C1 14.0069 1.55801 14.5649 2.24635 14.5649H2.46891C3.20642 14.5649 3.80428 15.1628 3.80428 15.9003Z" fill="black" stroke="black" stroke-width="1.86952"/>
<circle cx="15.9232" cy="12.796" r="4.37387" fill="#FFCE21"/>
<path d="M14.3082 13.9062H17.3699L20.297 25.6484H11.5493L14.3082 13.9062Z" fill="#FFCE21"/>
</svg>
